<?xml version="1.0" encoding="utf-8"?>
<!-- Generator: Adobe Illustrator 16.0.0, SVG Export Plug-In . SVG Version: 6.00 Build 0)  -->
<!DOCTYPE svg PUBLIC "-//W3C//DTD SVG 1.1//EN" "http://www.w3.org/Graphics/SVG/1.1/DTD/svg11.dtd">
<svg version="1.1" id="Layer_1" xmlns="http://www.w3.org/2000/svg" xmlns:xlink="http://www.w3.org/1999/xlink" x="0px" y="0px"
	 width="157.789px" height="37.754px" viewBox="0 0 157.789 37.754" enable-background="new 0 0 157.789 37.754"
	 xml:space="preserve">
<g id="Layer_x0020_1">
	<path fill="#FEFEFE" d="M28.073,28.412c0,0.698-0.202,1.258-0.838,1.626L15.13,37.027c-0.548,0.317-1.2,0.291-1.708-0.011
		L1.344,30.043c-0.538-0.312-0.84-0.877-0.84-1.457L0.5,16.238c0-0.668,0.388-1.246,0.951-1.52l5.941-3.43l6.049-3.493
		c0.548-0.317,1.2-0.291,1.707,0.011l6.029,3.481c0.569,0.329,0.873,0.94,0.838,1.554l0.011,11.515c0,0.929-0.754,1.682-1.683,1.682
		L8.357,26.045c-0.933,0-1.688-0.756-1.688-1.688v-5.653l3.377-1.95v5.913h8.615l-0.008-8.947l-4.367-2.521l-5.204,3.005
		l-5.204,3.004v10.407l10.408,6.01l10.424-6.019v-17.47L14.297,4.125l-13.79,7.913v-3.89l12.952-7.425
		c0.501-0.286,1.136-0.307,1.672,0.002l12.098,6.984c0.634,0.364,0.845,0.931,0.845,1.626V28.412L28.073,28.412z"/>
	<path fill="#FEFEFE" d="M36.821,8.251v3.763h-2.283V1.289h5.354c0.974,0,1.67,0.067,2.094,0.204
		c0.702,0.236,1.257,0.723,1.664,1.466c0.303,0.549,0.455,1.152,0.455,1.812c0,0.544-0.099,1.059-0.297,1.543
		c-0.198,0.488-0.478,0.887-0.834,1.201c-0.313,0.276-0.651,0.469-1.01,0.576c-0.362,0.107-0.853,0.161-1.477,0.161H36.821
		L36.821,8.251z M36.821,6.354h3.108c0.552,0,0.94-0.088,1.166-0.268c0.335-0.268,0.501-0.732,0.501-1.394
		c0-0.726-0.252-1.189-0.759-1.396c-0.182-0.072-0.469-0.11-0.86-0.11h-3.156V6.354z M47.842,7.93v4.084H45.56V1.289h5.235
		c1.504,0,2.555,0.19,3.154,0.574c0.402,0.257,0.716,0.595,0.938,1.016c0.223,0.423,0.335,0.887,0.335,1.396
		c0,1.021-0.26,1.806-0.78,2.355c-0.321,0.335-0.747,0.59-1.278,0.77c0.421,0.142,0.737,0.295,0.952,0.463
		c0.214,0.169,0.407,0.416,0.581,0.74c0.131,0.252,0.223,0.496,0.278,0.734c0.054,0.239,0.1,0.592,0.137,1.059
		c0.062,0.769,0.15,1.31,0.261,1.619h-2.563c-0.078-0.252-0.155-0.761-0.233-1.528c-0.064-0.63-0.177-1.109-0.343-1.444
		C52.072,8.71,51.82,8.45,51.485,8.26c-0.413-0.226-1.016-0.335-1.804-0.33H47.842L47.842,7.93z M47.842,6.033h3.203
		c0.535,0,0.916-0.081,1.142-0.239c0.34-0.241,0.512-0.656,0.512-1.249c0-0.656-0.258-1.08-0.771-1.265
		c-0.178-0.062-0.472-0.094-0.882-0.094h-3.203V6.033L47.842,6.033z M61.646,1.225c1.072,0,2.016,0.182,2.825,0.549
		c0.959,0.434,1.629,1.166,2.01,2.192c0.303,0.807,0.455,1.752,0.455,2.843c0,1.088-0.185,2.034-0.557,2.835
		c-0.456,0.962-1.158,1.632-2.112,2.01c-0.71,0.281-1.53,0.423-2.454,0.423c-1.206,0-2.254-0.225-3.149-0.675
		c-0.747-0.378-1.318-0.967-1.715-1.771c-0.394-0.804-0.592-1.779-0.592-2.924c0-2.042,0.506-3.5,1.521-4.368
		C58.736,1.608,59.992,1.236,61.646,1.225L61.646,1.225z M61.662,3.026c-1.048,0-1.798,0.343-2.251,1.029
		c-0.354,0.534-0.53,1.394-0.53,2.578c0,1.257,0.225,2.182,0.672,2.774c0.442,0.581,1.147,0.871,2.117,0.871
		c0.938,0,1.63-0.294,2.074-0.884c0.445-0.589,0.668-1.501,0.668-2.739c0-1.12-0.18-1.975-0.539-2.567
		C63.449,3.385,62.713,3.031,61.662,3.026L61.662,3.026z M77.109,5.679v1.897h-6.383v4.438h-2.283V6.413
		c0.016-1.616,0.171-2.677,0.463-3.187c0.362-0.699,0.891-1.195,1.584-1.493c0.694-0.297,1.667-0.445,2.919-0.445h3.7v1.897h-3.411
		c-1.062,0.016-1.744,0.102-2.047,0.26c-0.601,0.25-0.909,0.801-0.925,1.653v0.579H77.109L77.109,5.679z M86.823,1.289v1.897h-2.975
		c-0.78,0-1.349,0.054-1.702,0.164c-0.351,0.107-0.646,0.316-0.882,0.627C81.107,4.189,81,4.403,80.944,4.62
		c-0.059,0.214-0.107,0.584-0.15,1.107h6.03v1.897h-6.03c0.078,0.933,0.349,1.581,0.81,1.945c0.461,0.365,1.244,0.547,2.348,0.547
		h2.873v1.897h-2.975c-0.807,0-1.517-0.051-2.128-0.15c-0.962-0.155-1.729-0.579-2.299-1.265c-0.813-0.984-1.217-2.321-1.217-4.006
		c0-1.871,0.573-3.323,1.718-4.36c0.394-0.351,0.812-0.598,1.257-0.734c0.444-0.14,1.039-0.209,1.79-0.209H86.823z M88.597,12.014
		v-1.897h4.899c0.788,0,1.313-0.078,1.575-0.236c0.378-0.228,0.568-0.565,0.568-1.019c0-0.522-0.22-0.903-0.662-1.144
		c-0.252-0.137-0.653-0.207-1.206-0.207h-1.991c-1.216,0-2.093-0.22-2.628-0.659c-0.336-0.279-0.599-0.627-0.785-1.051
		c-0.191-0.42-0.284-0.871-0.284-1.345c0-0.755,0.22-1.444,0.661-2.069c0.43-0.6,1.121-0.951,2.069-1.05
		c0.321-0.032,0.798-0.048,1.434-0.048h5.322v1.897h-4.805c-0.719,0.005-1.195,0.038-1.434,0.097
		c-0.482,0.12-0.725,0.487-0.725,1.101c0,0.52,0.201,0.868,0.606,1.048c0.273,0.12,0.726,0.182,1.355,0.182h1.721
		c0.885,0,1.541,0.075,1.978,0.228c0.762,0.254,1.284,0.705,1.567,1.348c0.231,0.517,0.347,1.072,0.347,1.664
		c0,0.648-0.15,1.23-0.448,1.747c-0.421,0.731-1.053,1.168-1.899,1.311c-0.408,0.067-1.024,0.102-1.841,0.102H88.597L88.597,12.014z
		 M99.778,12.014v-1.897h4.898c0.788,0,1.313-0.078,1.576-0.236c0.378-0.228,0.568-0.565,0.568-1.019
		c0-0.522-0.22-0.903-0.662-1.144c-0.252-0.137-0.654-0.207-1.206-0.207h-1.991c-1.217,0-2.093-0.22-2.629-0.659
		c-0.335-0.279-0.598-0.627-0.785-1.051c-0.19-0.42-0.284-0.871-0.284-1.345c0-0.755,0.22-1.444,0.662-2.069
		c0.429-0.6,1.12-0.951,2.068-1.05c0.322-0.032,0.799-0.048,1.434-0.048h5.322v1.897h-4.805c-0.718,0.005-1.195,0.038-1.434,0.097
		c-0.482,0.12-0.724,0.487-0.724,1.101c0,0.52,0.201,0.868,0.605,1.048c0.273,0.12,0.727,0.182,1.356,0.182h1.72
		c0.885,0,1.541,0.075,1.979,0.228c0.761,0.254,1.283,0.705,1.567,1.348c0.23,0.517,0.346,1.072,0.346,1.664
		c0,0.648-0.15,1.23-0.447,1.747c-0.421,0.731-1.054,1.168-1.9,1.311c-0.407,0.067-1.023,0.102-1.841,0.102H99.778z M110.99,12.014
		V1.289h2.283v10.725H110.99z M120.168,1.225c1.072,0,2.016,0.183,2.824,0.55c0.96,0.434,1.63,1.166,2.011,2.192
		c0.303,0.807,0.455,1.752,0.455,2.843c0,1.088-0.185,2.034-0.558,2.835c-0.455,0.962-1.157,1.632-2.111,2.01
		c-0.71,0.281-1.53,0.423-2.455,0.423c-1.206,0-2.254-0.225-3.148-0.675c-0.748-0.378-1.318-0.967-1.715-1.771
		c-0.395-0.804-0.593-1.779-0.593-2.923c0-2.042,0.507-3.5,1.522-4.368C117.258,1.608,118.515,1.236,120.168,1.225z M120.185,3.026
		c-1.048,0-1.799,0.343-2.252,1.029c-0.354,0.533-0.53,1.394-0.53,2.578c0,1.257,0.226,2.182,0.673,2.773
		c0.442,0.582,1.147,0.871,2.117,0.871c0.938,0,1.629-0.294,2.074-0.884c0.444-0.589,0.667-1.501,0.667-2.739
		c0-1.12-0.18-1.975-0.538-2.567C121.972,3.385,121.235,3.031,120.185,3.026z M129.247,4.154v7.86h-2.17V1.289h2.918l4.27,7.991
		V1.289h2.17v10.725h-2.809L129.247,4.154z M137.51,12.014l4.438-10.725h2.629l4.435,10.725h-2.677L145.3,9.538h-4.076l-1.037,2.477
		H137.51L137.51,12.014z M143.266,3.873l-1.53,3.768h3.053L143.266,3.873L143.266,3.873z M150.049,1.289h2.283v6.03
		c0.031,0.764,0.064,1.273,0.102,1.525c0.072,0.488,0.306,0.82,0.699,1.002c0.396,0.18,1.088,0.271,2.08,0.271h2.184v1.897h-2.42
		c-1.142,0.005-1.973-0.059-2.489-0.196c-1.185-0.346-1.936-1.096-2.249-2.251c-0.123-0.442-0.185-1.193-0.189-2.249V1.289
		L150.049,1.289z"/>
	<path fill="#FEFEFE" d="M40.457,16.061v1.303h-2.043c-0.536,0-0.926,0.037-1.169,0.112c-0.241,0.074-0.443,0.217-0.605,0.431
		c-0.109,0.146-0.183,0.293-0.222,0.442c-0.04,0.147-0.073,0.401-0.103,0.76h4.142v1.304h-4.142
		c0.054,0.641,0.239,1.086,0.556,1.337c0.316,0.25,0.854,0.375,1.613,0.375h1.973v1.303h-2.043c-0.555,0-1.042-0.034-1.462-0.103
		c-0.661-0.106-1.188-0.397-1.579-0.868c-0.559-0.676-0.836-1.595-0.836-2.753c0-1.285,0.394-2.283,1.18-2.995
		c0.271-0.241,0.558-0.411,0.863-0.504c0.306-0.096,0.715-0.144,1.23-0.144H40.457z M48.253,18.029v5.399h-1.491v-7.367h2.005
		l2.933,5.49v-5.49h1.491v7.367h-1.93L48.253,18.029z M62.444,19.054h3.612v4.374h-3.284c-0.57,0-1.023-0.041-1.354-0.127
		c-0.332-0.084-0.636-0.231-0.908-0.445c-0.771-0.596-1.157-1.623-1.157-3.082c0-0.957,0.182-1.75,0.548-2.38
		c0.274-0.464,0.645-0.802,1.112-1.014c0.47-0.211,1.081-0.318,1.835-0.318h3.209v1.303h-3.032c-0.649,0-1.122,0.144-1.419,0.433
		c-0.346,0.341-0.52,0.948-0.52,1.826c0,0.451,0.047,0.857,0.137,1.221c0.092,0.362,0.215,0.633,0.372,0.81
		c0.144,0.163,0.336,0.282,0.577,0.357c0.243,0.075,0.546,0.114,0.906,0.114h1.41v-1.768h-2.044V19.054z M72.438,23.428v-7.367
		h1.568v7.367H72.438z M82.062,18.029v5.399h-1.491v-7.367h2.005l2.933,5.49v-5.49h1.491v7.367h-1.93L82.062,18.029L82.062,18.029z
		 M99.091,16.061v1.303h-2.043c-0.536,0-0.926,0.037-1.169,0.112c-0.241,0.074-0.443,0.217-0.606,0.431
		c-0.108,0.146-0.182,0.293-0.221,0.442c-0.04,0.147-0.073,0.401-0.103,0.76h4.142v1.304h-4.142
		c0.054,0.641,0.239,1.086,0.556,1.337c0.316,0.25,0.854,0.375,1.613,0.375h1.973v1.303h-2.043c-0.555,0-1.042-0.034-1.462-0.103
		c-0.661-0.106-1.188-0.397-1.579-0.868c-0.559-0.676-0.836-1.595-0.836-2.753c0-1.285,0.394-2.283,1.18-2.995
		c0.271-0.241,0.558-0.411,0.863-0.504c0.306-0.096,0.715-0.144,1.23-0.144H99.091L99.091,16.061z M110.918,16.061v1.303h-2.043
		c-0.536,0-0.926,0.037-1.169,0.112c-0.241,0.074-0.443,0.217-0.605,0.431c-0.109,0.146-0.183,0.293-0.222,0.442
		c-0.04,0.147-0.073,0.401-0.103,0.76h4.142v1.304h-4.142c0.054,0.641,0.239,1.086,0.556,1.337c0.316,0.25,0.854,0.375,1.613,0.375
		h1.973v1.303h-2.043c-0.555,0-1.042-0.034-1.462-0.103c-0.661-0.106-1.188-0.397-1.579-0.868c-0.559-0.676-0.836-1.595-0.836-2.753
		c0-1.285,0.394-2.283,1.18-2.995c0.271-0.241,0.558-0.411,0.863-0.504c0.306-0.096,0.715-0.144,1.23-0.144H110.918L110.918,16.061z
		 M118.791,20.623v2.805h-1.568v-7.367h3.597c1.033,0,1.755,0.131,2.167,0.394c0.276,0.177,0.492,0.409,0.645,0.698
		c0.153,0.291,0.23,0.609,0.23,0.959c0,0.702-0.179,1.241-0.536,1.619c-0.221,0.229-0.514,0.404-0.878,0.527
		c0.289,0.098,0.506,0.203,0.653,0.318c0.147,0.116,0.28,0.286,0.399,0.509c0.091,0.173,0.153,0.341,0.191,0.505
		c0.037,0.163,0.068,0.406,0.095,0.727c0.042,0.528,0.103,0.9,0.178,1.111h-1.76c-0.053-0.172-0.106-0.521-0.16-1.049
		c-0.044-0.433-0.121-0.762-0.235-0.992c-0.112-0.229-0.285-0.406-0.516-0.537c-0.283-0.154-0.697-0.23-1.238-0.227H118.791
		L118.791,20.623z M118.791,19.319h2.2c0.368,0,0.629-0.055,0.784-0.164c0.233-0.166,0.352-0.451,0.352-0.858
		c0-0.451-0.177-0.742-0.53-0.869c-0.121-0.042-0.324-0.064-0.605-0.064h-2.2V19.319z M130.182,23.428v-7.367h1.569v7.367H130.182z
		 M139.806,18.029v5.399h-1.491v-7.367h2.005l2.933,5.49v-5.49h1.491v7.367h-1.929L139.806,18.029L139.806,18.029z M153.997,19.054
		h3.611v4.374h-3.284c-0.57,0-1.023-0.041-1.354-0.127c-0.331-0.084-0.635-0.231-0.907-0.445c-0.771-0.596-1.158-1.623-1.158-3.082
		c0-0.957,0.182-1.75,0.549-2.38c0.273-0.464,0.644-0.802,1.111-1.014c0.47-0.211,1.081-0.318,1.836-0.318h3.208v1.303h-3.031
		c-0.65,0-1.123,0.144-1.42,0.433c-0.346,0.341-0.519,0.948-0.519,1.826c0,0.451,0.046,0.857,0.136,1.221
		c0.092,0.362,0.216,0.633,0.372,0.81c0.144,0.163,0.337,0.282,0.578,0.357c0.243,0.075,0.545,0.114,0.905,0.114h1.41v-1.768h-2.043
		V19.054L153.997,19.054z"/>
	<path fill="#FEFEFE" d="M39.383,34.699h-0.707L38.1,33.172h-2.311l-0.543,1.527h-0.709l2.088-5.445h0.661L39.383,34.699z
		 M37.89,32.6l-0.854-2.321c-0.027-0.076-0.056-0.198-0.083-0.364h-0.016c-0.025,0.154-0.055,0.275-0.087,0.364L36.002,32.6H37.89z
		 M42.916,34.699h-0.624v-5.758h0.624V34.699z M51.269,30.811l-1.167,3.889h-0.646l-0.801-2.783
		c-0.03-0.107-0.051-0.227-0.062-0.361h-0.015c-0.007,0.092-0.034,0.208-0.079,0.354l-0.87,2.791h-0.622l-1.179-3.889h0.653
		l0.805,2.924c0.026,0.088,0.044,0.205,0.054,0.349h0.031c0.008-0.111,0.029-0.229,0.068-0.356l0.896-2.916h0.569l0.807,2.932
		c0.024,0.094,0.044,0.21,0.056,0.35h0.031c0.005-0.1,0.025-0.216,0.064-0.35l0.789-2.932H51.269L51.269,30.811z M56.967,34.699
		h-0.624v-0.607h-0.014c-0.271,0.466-0.671,0.698-1.197,0.698c-0.388,0-0.69-0.103-0.909-0.308c-0.22-0.205-0.328-0.477-0.328-0.816
		c0-0.727,0.428-1.15,1.283-1.268l1.165-0.164c0-0.66-0.267-0.991-0.801-0.991c-0.468,0-0.891,0.159-1.268,0.479v-0.638
		c0.382-0.244,0.821-0.365,1.32-0.365c0.914,0,1.372,0.484,1.372,1.451V34.699L56.967,34.699z M56.343,32.73l-0.938,0.131
		c-0.289,0.04-0.507,0.111-0.653,0.215c-0.146,0.102-0.22,0.283-0.22,0.545c0,0.189,0.067,0.344,0.203,0.465
		c0.135,0.121,0.315,0.18,0.541,0.18c0.309,0,0.563-0.108,0.765-0.324c0.202-0.216,0.302-0.49,0.302-0.822V32.73z M63.428,30.811
		l-1.789,4.511c-0.318,0.806-0.767,1.208-1.344,1.208c-0.162,0-0.297-0.017-0.406-0.049v-0.559c0.134,0.045,0.257,0.068,0.368,0.068
		c0.314,0,0.55-0.187,0.707-0.562l0.311-0.737l-1.519-3.881h0.69l1.053,2.992c0.013,0.038,0.039,0.137,0.079,0.296h0.023
		c0.013-0.061,0.037-0.157,0.075-0.288l1.105-3H63.428L63.428,30.811z M66.054,34.559v-0.668c0.338,0.25,0.713,0.375,1.12,0.375
		c0.547,0,0.82-0.183,0.82-0.547c0-0.104-0.023-0.191-0.07-0.263c-0.048-0.073-0.109-0.136-0.19-0.192
		c-0.079-0.056-0.174-0.105-0.281-0.15c-0.107-0.044-0.223-0.09-0.347-0.139c-0.173-0.068-0.323-0.137-0.454-0.207
		c-0.13-0.068-0.239-0.148-0.327-0.234c-0.087-0.088-0.152-0.188-0.197-0.299c-0.044-0.111-0.065-0.242-0.065-0.391
		c0-0.184,0.041-0.344,0.124-0.485c0.084-0.14,0.196-0.258,0.335-0.353c0.14-0.095,0.298-0.167,0.477-0.215
		c0.178-0.049,0.363-0.072,0.553-0.072c0.337,0,0.638,0.059,0.903,0.174v0.632c-0.285-0.188-0.614-0.281-0.986-0.281
		c-0.117,0-0.222,0.013-0.316,0.04c-0.094,0.025-0.174,0.063-0.241,0.111c-0.066,0.049-0.118,0.106-0.155,0.173
		c-0.037,0.067-0.055,0.142-0.055,0.223c0,0.101,0.018,0.186,0.055,0.255c0.037,0.068,0.091,0.129,0.162,0.182
		c0.069,0.054,0.156,0.102,0.258,0.145c0.101,0.043,0.217,0.09,0.346,0.14c0.171,0.066,0.327,0.134,0.463,0.204
		c0.137,0.069,0.253,0.147,0.35,0.235c0.097,0.087,0.17,0.188,0.222,0.302c0.053,0.114,0.078,0.25,0.078,0.406
		c0,0.193-0.043,0.36-0.127,0.502c-0.086,0.141-0.198,0.259-0.34,0.352c-0.143,0.096-0.306,0.164-0.489,0.211
		c-0.186,0.045-0.379,0.067-0.582,0.067C66.695,34.79,66.347,34.713,66.054,34.559L66.054,34.559z M79.804,29.83h-1.572v4.869
		h-0.639V29.83h-1.568v-0.576h3.779V29.83z M85.996,34.699h-0.623v-2.241c0-0.811-0.301-1.215-0.903-1.215
		c-0.304,0-0.56,0.116-0.768,0.351c-0.207,0.235-0.312,0.535-0.312,0.902v2.203h-0.623v-5.758h0.623v2.515h0.017
		c0.298-0.491,0.723-0.737,1.275-0.737c0.876,0,1.313,0.528,1.313,1.584V34.699z M89.682,29.822c-0.11,0-0.206-0.037-0.284-0.114
		c-0.079-0.075-0.118-0.171-0.118-0.288c0-0.116,0.039-0.213,0.118-0.29c0.078-0.077,0.174-0.116,0.284-0.116
		c0.114,0,0.211,0.039,0.291,0.116c0.079,0.077,0.12,0.174,0.12,0.29c0,0.111-0.041,0.207-0.12,0.284
		C89.893,29.783,89.796,29.822,89.682,29.822z M89.987,34.699h-0.624v-3.889h0.624V34.699z M96.668,34.699h-0.623V32.48
		c0-0.825-0.301-1.237-0.904-1.237c-0.311,0-0.568,0.116-0.772,0.351c-0.205,0.235-0.306,0.531-0.306,0.887v2.219h-0.624v-3.889
		h0.624v0.646h0.016c0.293-0.491,0.718-0.737,1.275-0.737c0.425,0,0.751,0.139,0.977,0.412c0.225,0.274,0.338,0.672,0.338,1.19
		V34.699L96.668,34.699z M103.263,34.699h-0.873l-1.717-1.868h-0.016v1.868h-0.623v-5.758h0.623v3.65h0.016l1.632-1.781h0.817
		l-1.804,1.875L103.263,34.699z M106.411,29.822c-0.11,0-0.206-0.037-0.284-0.114c-0.079-0.075-0.117-0.171-0.117-0.288
		c0-0.116,0.038-0.213,0.117-0.29c0.078-0.077,0.174-0.116,0.284-0.116c0.114,0,0.211,0.039,0.292,0.116
		c0.079,0.077,0.119,0.174,0.119,0.29c0,0.111-0.04,0.207-0.119,0.284C106.622,29.783,106.526,29.822,106.411,29.822z
		 M106.716,34.699h-0.624v-3.889h0.624V34.699z M113.398,34.699h-0.623V32.48c0-0.825-0.301-1.237-0.904-1.237
		c-0.311,0-0.568,0.116-0.772,0.351c-0.204,0.235-0.306,0.531-0.306,0.887v2.219h-0.624v-3.889h0.624v0.646h0.016
		c0.293-0.491,0.718-0.737,1.275-0.737c0.426,0,0.751,0.139,0.977,0.412c0.226,0.274,0.338,0.672,0.338,1.19V34.699L113.398,34.699z
		 M120.083,34.388c0,1.428-0.683,2.142-2.051,2.142c-0.48,0-0.9-0.09-1.261-0.273v-0.622c0.438,0.242,0.855,0.364,1.253,0.364
		c0.957,0,1.436-0.51,1.436-1.527v-0.425h-0.015c-0.297,0.496-0.742,0.744-1.338,0.744c-0.483,0-0.872-0.173-1.166-0.519
		c-0.296-0.345-0.443-0.809-0.443-1.391c0-0.662,0.159-1.187,0.477-1.576c0.317-0.391,0.754-0.586,1.305-0.586
		c0.524,0,0.912,0.211,1.166,0.631h0.015v-0.539h0.623V34.388z M119.46,32.941v-0.574c0-0.309-0.104-0.573-0.313-0.793
		c-0.209-0.221-0.47-0.331-0.78-0.331c-0.385,0-0.688,0.14-0.905,0.42s-0.326,0.671-0.326,1.175c0,0.433,0.104,0.779,0.313,1.039
		s0.486,0.389,0.83,0.389c0.35,0,0.634-0.124,0.853-0.371C119.351,33.645,119.46,33.328,119.46,32.941z M132.554,34.699h-0.707
		l-0.576-1.527h-2.311l-0.543,1.527h-0.709l2.089-5.445h0.661L132.554,34.699L132.554,34.699z M131.061,32.6l-0.854-2.321
		c-0.027-0.076-0.056-0.198-0.083-0.364h-0.016c-0.024,0.154-0.055,0.275-0.087,0.364l-0.848,2.321H131.061z M138.693,34.699h-0.623
		v-2.241c0-0.811-0.301-1.215-0.904-1.215c-0.303,0-0.56,0.116-0.767,0.351c-0.208,0.235-0.312,0.535-0.312,0.902v2.203h-0.623
		v-5.758h0.623v2.515h0.016c0.298-0.491,0.724-0.737,1.275-0.737c0.876,0,1.314,0.528,1.314,1.584V34.699L138.693,34.699z
		 M145.184,32.91h-2.745c0.01,0.434,0.127,0.768,0.35,1.004c0.224,0.234,0.529,0.352,0.919,0.352c0.438,0,0.841-0.144,1.208-0.433
		v0.585c-0.342,0.248-0.794,0.372-1.355,0.372c-0.55,0-0.981-0.177-1.295-0.529c-0.315-0.354-0.472-0.851-0.472-1.49
		c0-0.605,0.172-1.099,0.515-1.479s0.77-0.572,1.277-0.572c0.51,0,0.902,0.166,1.182,0.494c0.278,0.328,0.417,0.786,0.417,1.371
		V32.91L145.184,32.91z M144.546,32.383c-0.003-0.359-0.089-0.639-0.259-0.84c-0.172-0.2-0.408-0.3-0.714-0.3
		c-0.292,0-0.543,0.104-0.747,0.315c-0.205,0.209-0.332,0.484-0.38,0.824H144.546z M151.104,34.699h-0.623v-0.607h-0.015
		c-0.271,0.466-0.67,0.698-1.196,0.698c-0.388,0-0.691-0.103-0.91-0.308c-0.22-0.205-0.328-0.477-0.328-0.816
		c0-0.727,0.428-1.15,1.283-1.268l1.166-0.164c0-0.66-0.268-0.991-0.802-0.991c-0.468,0-0.891,0.159-1.268,0.479v-0.638
		c0.382-0.244,0.821-0.365,1.321-0.365c0.913,0,1.371,0.484,1.371,1.451V34.699L151.104,34.699z M150.481,32.73l-0.938,0.131
		c-0.289,0.04-0.507,0.111-0.653,0.215c-0.146,0.102-0.221,0.283-0.221,0.545c0,0.189,0.067,0.344,0.203,0.465
		s0.315,0.18,0.541,0.18c0.309,0,0.564-0.108,0.765-0.324c0.202-0.216,0.303-0.49,0.303-0.822V32.73z M157.789,34.699h-0.623v-0.661
		h-0.015c-0.289,0.501-0.735,0.752-1.338,0.752c-0.487,0-0.879-0.174-1.171-0.522c-0.292-0.348-0.438-0.822-0.438-1.422
		c0-0.643,0.162-1.158,0.485-1.545c0.324-0.389,0.756-0.582,1.295-0.582c0.534,0,0.923,0.211,1.167,0.631h0.015v-2.408h0.623V34.699
		z M157.166,32.941v-0.574c0-0.314-0.104-0.58-0.312-0.797c-0.207-0.219-0.471-0.327-0.789-0.327c-0.38,0-0.68,0.139-0.897,0.417
		c-0.218,0.279-0.326,0.664-0.326,1.155c0,0.448,0.104,0.802,0.313,1.062s0.49,0.389,0.841,0.389c0.348,0,0.629-0.125,0.846-0.375
		C157.058,33.64,157.166,33.322,157.166,32.941z"/>
</g>
</svg>
